<svg width="10" height="11" viewBox="0 0 10 11" fill="none" xmlns="http://www.w3.org/2000/svg">
<path fill-rule="evenodd" clip-rule="evenodd" d="M3.57143 4.95C3.57143 5.05102 3.65143 5.13333 3.75 5.13333C3.84857 5.13333 3.92857 5.05102 3.92857 4.95C3.92857 4.84898 3.84857 4.76667 3.75 4.76667C3.65143 4.76667 3.57143 4.84898 3.57143 4.95ZM3.92857 8.25C3.92857 8.14898 3.84857 8.06667 3.75 8.06667C3.65143 8.06667 3.57143 8.14898 3.57143 8.25C3.57143 8.35102 3.65143 8.43333 3.75 8.43333C3.84857 8.43333 3.92857 8.35102 3.92857 8.25ZM2.5 4.95C2.5 4.84898 2.42 4.76667 2.32143 4.76667C2.22286 4.76667 2.14286 4.84898 2.14286 4.95C2.14286 5.05102 2.22286 5.13333 2.32143 5.13333C2.42 5.13333 2.5 5.05102 2.5 4.95ZM2.5 7.15C2.5 7.04898 2.42 6.96667 2.32143 6.96667C2.22286 6.96667 2.14286 7.04898 2.14286 7.15C2.14286 7.25102 2.22286 7.33333 2.32143 7.33333C2.42 7.33333 2.5 7.25102 2.5 7.15ZM3.57143 3.11667C3.57143 3.21768 3.65143 3.3 3.75 3.3C3.84857 3.3 3.92857 3.21768 3.92857 3.11667C3.92857 3.01565 3.84857 2.93333 3.75 2.93333C3.65143 2.93333 3.57143 3.01565 3.57143 3.11667ZM2.5 3.3V4.43373C2.65143 4.4891 2.77036 4.61138 2.82411 4.76667H3.24732C3.32125 4.55363 3.5175 4.4 3.75 4.4C4.04536 4.4 4.28571 4.64677 4.28571 4.95C4.28571 5.1887 4.13589 5.39018 3.92857 5.46627V7.73373C4.13589 7.80982 4.28571 8.0113 4.28571 8.25C4.28571 8.4887 4.13589 8.69018 3.92857 8.76627V9.35C3.92857 9.4512 3.84875 9.53333 3.75 9.53333C3.65125 9.53333 3.57143 9.4512 3.57143 9.35V8.76608C3.38911 8.69953 3.25321 8.53563 3.22268 8.33433L2.55232 7.64628L2.55125 7.64463C2.48143 7.6791 2.40411 7.7 2.32143 7.7C2.02607 7.7 1.78571 7.45323 1.78571 7.15C1.78571 6.84677 2.02607 6.6 2.32143 6.6C2.61679 6.6 2.85714 6.84677 2.85714 7.15C2.85714 7.2347 2.83679 7.31427 2.80321 7.38595L2.80482 7.38705L3.32393 7.92018C3.38661 7.83512 3.47196 7.77022 3.57143 7.73373V5.46608C3.42 5.4109 3.30107 5.28862 3.24732 5.13333H2.82411C2.75018 5.34637 2.55393 5.5 2.32143 5.5C2.02607 5.5 1.78571 5.25323 1.78571 4.95C1.78571 4.7113 1.93554 4.50982 2.14286 4.43373V3.11667C2.14286 3.01547 2.22268 2.93333 2.32143 2.93333H3.24732C3.30107 2.77805 3.42 2.65577 3.57143 2.6004V2.01667C3.57143 1.91547 3.65125 1.83333 3.75 1.83333C3.84875 1.83333 3.92857 1.91547 3.92857 2.01667V2.6004C4.13589 2.67648 4.28571 2.87797 4.28571 3.11667C4.28571 3.4199 4.04536 3.66667 3.75 3.66667C3.5175 3.66667 3.32125 3.51303 3.24732 3.3H2.5ZM9.57732 6.82825C9.84321 6.58827 10 6.24103 10 5.86667C10 5.47433 9.83018 5.1139 9.53839 4.8719C9.60714 4.72468 9.64286 4.56427 9.64286 4.4C9.64286 4.0216 9.44946 3.67308 9.14429 3.47417C9.23643 3.30935 9.28571 3.12345 9.28571 2.93333C9.28571 2.46033 8.99304 2.04912 8.56946 1.89732C8.57071 1.87587 8.57143 1.8546 8.57143 1.83333C8.57143 1.22668 8.09089 0.733333 7.5 0.733333C7.35589 0.733333 7.21554 0.7634 7.08446 0.821333C6.93089 0.343933 6.48929 0 5.98214 0C5.23071 0 4.89661 0.695933 4.825 1.06407C4.82375 1.07012 4.82536 1.07598 4.825 1.08222C4.82446 1.08845 4.82143 1.09358 4.82143 1.1V9.70567C4.78107 10.2261 4.35054 10.6333 3.83929 10.6333C3.32982 10.6333 2.90054 10.2247 2.86179 9.70273C2.85464 9.60722 2.77179 9.53333 2.67857 9.53333C2.62286 9.53333 2.57036 9.5601 2.53643 9.60557C2.39786 9.79275 2.18929 9.9 1.96429 9.9C1.57036 9.9 1.25 9.5711 1.25 9.16667C1.25 9.0002 1.30643 8.84107 1.41357 8.70632C1.46179 8.64563 1.46714 8.56002 1.42661 8.49347C1.38625 8.42692 1.30982 8.39392 1.23446 8.41207C1.17464 8.42637 1.12125 8.43333 1.07143 8.43333C0.6775 8.43333 0.357143 8.10443 0.357143 7.7C0.357143 7.39768 0.544107 7.12268 0.822143 7.01562C0.888393 6.99013 0.93375 6.92707 0.937857 6.85483C0.941964 6.78242 0.904107 6.71422 0.841607 6.68103C0.542679 6.52282 0.357143 6.2106 0.357143 5.86667C0.357143 5.54327 0.519107 5.24993 0.790536 5.082C0.832857 5.05578 0.862679 5.0127 0.873036 4.96302C0.883214 4.91315 0.872857 4.86145 0.844464 4.81983C0.759286 4.69498 0.714286 4.54997 0.714286 4.4C0.714286 4.09548 0.903214 3.81993 1.18411 3.71415C1.23964 3.69325 1.28161 3.6454 1.29607 3.58655C1.31036 3.52752 1.29518 3.465 1.25571 3.41972C1.13679 3.2835 1.07143 3.1108 1.07143 2.93333C1.07143 2.57803 1.31946 2.27535 1.66089 2.21338C1.70875 2.20458 1.75143 2.17617 1.77839 2.13455C1.80536 2.09293 1.81464 2.04178 1.80429 1.99302C1.79179 1.93582 1.78571 1.88357 1.78571 1.83333C1.78571 1.4289 2.10607 1.1 2.5 1.1C2.65464 1.1 2.80375 1.15298 2.93143 1.25327C2.98339 1.29397 3.05286 1.3024 3.11232 1.27527C3.17214 1.24795 3.2125 1.18947 3.21804 1.12273C3.25196 0.698867 3.60339 0.366667 4.01786 0.366667C4.21679 0.366667 4.38125 0.4323 4.52054 0.567233C4.5925 0.636717 4.70554 0.633233 4.77304 0.559533C4.84071 0.485833 4.8375 0.369967 4.76571 0.300483C4.55982 0.101017 4.30821 0 4.01786 0C3.51071 0 3.06911 0.343933 2.91554 0.821333C2.78446 0.7634 2.64411 0.733333 2.5 0.733333C1.90911 0.733333 1.42857 1.22668 1.42857 1.83333C1.42857 1.8546 1.42929 1.87587 1.43054 1.89732C1.00696 2.04912 0.714286 2.46033 0.714286 2.93333C0.714286 3.12345 0.763571 3.30935 0.855714 3.47417C0.550536 3.67308 0.357143 4.0216 0.357143 4.4C0.357143 4.56427 0.392857 4.72468 0.461607 4.8719C0.169821 5.1139 0 5.47433 0 5.86667C0 6.24103 0.156786 6.58827 0.422679 6.82825C0.161786 7.03303 0 7.3546 0 7.7C0 8.26705 0.420179 8.73528 0.957679 8.79377C0.914821 8.91257 0.892857 9.03797 0.892857 9.16667C0.892857 9.77332 1.37339 10.2667 1.96429 10.2667C2.18607 10.2667 2.39714 10.1975 2.57429 10.0709C2.75643 10.6124 3.25982 11 3.83929 11C4.53714 11 5.12518 10.4423 5.17804 9.7306C5.17821 9.72822 5.17714 9.72602 5.17714 9.72363C5.17732 9.72107 5.17857 9.71923 5.17857 9.71667V1.12017C5.205 1.0076 5.38125 0.366667 5.98214 0.366667C6.39661 0.366667 6.74804 0.698867 6.78196 1.12273C6.7875 1.18947 6.82786 1.24795 6.88768 1.27527C6.94714 1.3024 7.01661 1.29397 7.06857 1.25327C7.19625 1.15298 7.34536 1.1 7.5 1.1C7.89393 1.1 8.21429 1.4289 8.21429 1.83333C8.21429 1.88357 8.20821 1.93582 8.19571 1.99302C8.18536 2.04178 8.19464 2.09293 8.22161 2.13455C8.24857 2.17617 8.29125 2.20458 8.33911 2.21338C8.68054 2.27535 8.92857 2.57803 8.92857 2.93333C8.92857 3.1108 8.86321 3.2835 8.74429 3.41972C8.70482 3.465 8.68964 3.52752 8.70393 3.58655C8.71839 3.6454 8.76036 3.69325 8.81589 3.71415C9.09679 3.81993 9.28571 4.09548 9.28571 4.4C9.28571 4.54997 9.24071 4.69498 9.15554 4.81983C9.12714 4.86145 9.11679 4.91315 9.12696 4.96302C9.13732 5.0127 9.16714 5.05578 9.20947 5.082C9.48089 5.24993 9.64286 5.54327 9.64286 5.86667C9.64286 6.2106 9.45732 6.52282 9.15839 6.68103C9.09589 6.71422 9.05804 6.78242 9.06214 6.85483C9.06625 6.92707 9.11161 6.99013 9.17786 7.01562C9.45589 7.12268 9.64286 7.39768 9.64286 7.7C9.64286 8.10443 9.3225 8.43333 8.92857 8.43333C8.87875 8.43333 8.82536 8.42637 8.76554 8.41207C8.69054 8.39392 8.61393 8.42692 8.57339 8.49347C8.53286 8.56002 8.53821 8.64563 8.58643 8.70632C8.69357 8.84107 8.75 9.0002 8.75 9.16667C8.75 9.5711 8.42964 9.9 8.03571 9.9C7.81 9.9 7.60179 9.79147 7.46464 9.60208C7.41857 9.53883 7.33839 9.51298 7.26536 9.53755C7.23893 9.54653 7.21571 9.56138 7.19696 9.58027C7.16375 9.6107 7.14179 9.65397 7.13821 9.70273C7.09946 10.2247 6.67018 10.6333 6.16071 10.6333C5.93625 10.6333 5.72446 10.5576 5.54821 10.4144C5.47054 10.3516 5.35857 10.3651 5.29732 10.4443C5.23607 10.5237 5.24929 10.639 5.32643 10.7019C5.56304 10.894 5.85946 11 6.16071 11C6.74054 11 7.24429 10.6117 7.42607 10.0696C7.60268 10.1972 7.81339 10.2667 8.03571 10.2667C8.62661 10.2667 9.10714 9.77332 9.10714 9.16667C9.10714 9.03797 9.08518 8.91257 9.04232 8.79377C9.57982 8.73528 10 8.26705 10 7.7C10 7.3546 9.83821 7.03303 9.57732 6.82825ZM6.42857 8.25C6.42857 8.3512 6.50839 8.43333 6.60714 8.43333C6.8675 8.43333 7.14286 8.71603 7.14286 8.98333C7.14286 9.08453 7.22268 9.16667 7.32143 9.16667C7.42018 9.16667 7.5 9.08453 7.5 8.98333C7.5 8.51217 7.06607 8.06667 6.60714 8.06667C6.50839 8.06667 6.42857 8.1488 6.42857 8.25ZM8.03571 3.3C7.77536 3.3 7.5 3.0173 7.5 2.75C7.5 2.6488 7.42018 2.56667 7.32143 2.56667C7.22268 2.56667 7.14286 2.6488 7.14286 2.75C7.14286 3.22117 7.57679 3.66667 8.03571 3.66667C8.13446 3.66667 8.21429 3.58453 8.21429 3.48333C8.21429 3.38213 8.13446 3.3 8.03571 3.3ZM5.89286 7.33333C5.99161 7.33333 6.07143 7.2512 6.07143 7.15C6.07143 6.8827 6.34679 6.6 6.60714 6.6C6.70589 6.6 6.78571 6.51787 6.78571 6.41667C6.78571 6.31547 6.70589 6.23333 6.60714 6.23333C6.14821 6.23333 5.71429 6.67883 5.71429 7.15C5.71429 7.2512 5.79411 7.33333 5.89286 7.33333ZM6.60714 5.13333C6.70589 5.13333 6.78571 5.0512 6.78571 4.95C6.78571 4.8488 6.70589 4.76667 6.60714 4.76667C6.34679 4.76667 6.07143 4.48397 6.07143 4.21667C6.07143 4.11547 5.99161 4.03333 5.89286 4.03333C5.79411 4.03333 5.71429 4.11547 5.71429 4.21667C5.71429 4.68783 6.14821 5.13333 6.60714 5.13333ZM8.39286 4.4C8.29411 4.4 8.21429 4.48213 8.21429 4.58333C8.21429 4.85063 7.93893 5.13333 7.67857 5.13333C7.57982 5.13333 7.5 5.21547 7.5 5.31667C7.5 5.41787 7.57982 5.5 7.67857 5.5C8.1375 5.5 8.57143 5.0545 8.57143 4.58333C8.57143 4.48213 8.49161 4.4 8.39286 4.4ZM7.67857 6.6C7.57982 6.6 7.5 6.68213 7.5 6.78333C7.5 6.88453 7.57982 6.96667 7.67857 6.96667C7.93893 6.96667 8.21429 7.24937 8.21429 7.51667C8.21429 7.61787 8.29411 7.7 8.39286 7.7C8.49161 7.7 8.57143 7.61787 8.57143 7.51667C8.57143 7.0455 8.1375 6.6 7.67857 6.6ZM5.71429 2.56667C5.71429 2.0955 6.14821 1.65 6.60714 1.65C6.70589 1.65 6.78571 1.73213 6.78571 1.83333C6.78571 1.93453 6.70589 2.01667 6.60714 2.01667C6.34679 2.01667 6.07143 2.29937 6.07143 2.56667C6.07143 2.66787 5.99161 2.75 5.89286 2.75C5.79411 2.75 5.71429 2.66787 5.71429 2.56667Z" fill="#666666"/>
</svg>
