<svg width="9" height="12" viewBox="0 0 9 12" fill="none" xmlns="http://www.w3.org/2000/svg">
<g clip-path="url(#clip0_91_24)">
<mask id="mask0_91_24" style="mask-type:luminance" maskUnits="userSpaceOnUse" x="0" y="0" width="9" height="12">
<path d="M9 0H0V12H9V0Z" fill="white"/>
</mask>
<g mask="url(#mask0_91_24)">
<path d="M1.28571 0.75C1.28571 0.335156 0.998438 0 0.642857 0C0.287277 0 0 0.335156 0 0.75V1.5V8.625V11.25C0 11.6648 0.287277 12 0.642857 12C0.998438 12 1.28571 11.6648 1.28571 11.25V8.25L2.57746 7.87266C3.40312 7.63125 4.27701 7.74375 5.03839 8.18672C5.92634 8.70469 6.95692 8.76797 7.88504 8.36016L8.58214 8.05547C8.83326 7.94531 9 7.66641 9 7.35234V1.54922C9 1.01016 8.51384 0.658594 8.1 0.9L7.90714 1.0125C6.97701 1.55625 5.88214 1.55625 4.95201 1.0125C4.24687 0.6 3.43728 0.496875 2.67187 0.719531L1.28571 1.125V0.75Z" fill="#ABABAB"/>
</g>
</g>
<defs>
<clipPath id="clip0_91_24">
<rect width="9" height="12" fill="white"/>
</clipPath>
</defs>
</svg>
