<svg width="56" height="109" viewBox="0 0 56 109" fill="none" xmlns="http://www.w3.org/2000/svg">
<g clip-path="url(#clip0_24_97)">
<path d="M28.0473 8.87962C36.0015 20.8929 40.2476 35.7071 40.0936 50.9084V54.5371L42.7179 56.4368C46.1087 58.8789 48.6376 62.6665 49.8437 67.1095C48.7847 66.182 47.6769 65.3336 46.5268 64.5694L39.5287 59.8948L38.2712 69.3294C38.1623 70.1631 38.0163 70.9895 37.8338 71.8054H18.2244C17.9328 70.7382 17.6959 69.6709 17.4772 68.5609L15.8917 60.0228L9.44027 64.2919C8.36246 65.0089 7.32185 65.8001 6.3239 66.6612C7.55346 62.2696 10.0295 58.5033 13.3403 55.9886L15.837 54.0889V50.7163C15.8821 35.5767 20.1792 20.8751 28.0656 8.87962H28.0473ZM28.0656 0C27.6566 0.00118164 27.2617 0.17555 26.9539 0.490941L26.7899 0.661703C16.2809 14.4278 10.4454 32.2287 10.3879 50.695C5.92843 54.0837 2.62743 59.2002 1.06177 65.1502C-0.503887 71.1002 -0.234631 77.5054 1.82249 83.2465C3.98955 77.6409 7.61216 72.9796 12.1739 69.927C12.6314 72.2481 13.2407 74.5246 13.9964 76.7362C14.0922 77.1613 14.3046 77.5378 14.601 77.8078C14.8973 78.0777 15.2611 78.2262 15.6365 78.2303H40.932C41.4422 78.2303 41.9525 77.654 42.2077 76.7575C42.9452 74.6549 43.4593 72.4541 43.7385 70.2045C48.309 73.2443 51.9346 77.9094 54.09 83.524C56.2712 77.8112 56.6089 71.3655 55.0404 65.3832C53.4719 59.4009 50.1037 54.2881 45.5609 50.9938C45.7412 32.4186 39.9366 14.4464 29.3048 0.661703C29.1465 0.454377 28.9527 0.288335 28.7361 0.174343C28.5195 0.0603509 28.2848 0.000952892 28.0473 0L28.0656 0Z" fill="#4EA8DE"/>
<path d="M28.0471 48.9233C26.6473 48.9233 25.2788 48.4379 24.1142 47.5283C22.9496 46.6187 22.041 45.3257 21.5028 43.8122C20.9647 42.2987 20.8211 40.6324 21.0903 39.0235C21.3594 37.4146 22.0292 35.935 23.0152 34.7713C24.0012 33.6075 25.2593 32.8117 26.6308 32.4841C28.0024 32.1566 29.426 32.3119 30.7224 32.9305C32.0187 33.5492 33.1296 34.6035 33.9151 35.9605C34.7006 37.3175 35.1256 38.9165 35.1364 40.556C35.1582 41.6184 35.001 42.6755 34.6739 43.6668C34.3468 44.6581 33.8561 45.5642 33.2299 46.3333C32.6037 47.1024 31.8543 47.7195 31.0244 48.1492C30.1945 48.579 29.3005 48.813 28.3933 48.8379C28.2787 48.8595 28.1618 48.8595 28.0471 48.8379V48.9233Z" fill="#4EA8DE"/>
<path d="M37.9066 83.5453C37.4506 83.5282 36.9963 83.618 36.5703 83.8093C36.1443 84.0006 35.7553 84.2897 35.426 84.6595C35.0966 85.0293 34.8337 85.4724 34.6525 85.9629C34.4714 86.4533 34.3757 86.9812 34.3711 87.5155V100.109C34.3711 101.207 34.7436 102.261 35.4066 103.037C36.0697 103.814 36.9689 104.25 37.9066 104.25C38.8443 104.25 39.7436 103.814 40.4066 103.037C41.0697 102.261 41.4421 101.207 41.4421 100.109V87.6863C41.4567 87.154 41.3807 86.6236 41.2184 86.126C41.0562 85.6285 40.811 85.1738 40.4972 84.7883C40.1834 84.4029 39.8072 84.0945 39.3906 83.8811C38.974 83.6677 38.5253 83.5535 38.0706 83.5453H37.9066Z" fill="#5E60CE"/>
<path d="M18.2245 83.5453C17.7607 83.5166 17.2968 83.5974 16.8602 83.783C16.4237 83.9685 16.0235 84.255 15.6835 84.6254C15.3434 84.9959 15.0704 85.4426 14.8808 85.9391C14.6911 86.4356 14.5887 86.9717 14.5796 87.5155V100.109C14.5796 101.207 14.9521 102.261 15.6151 103.037C16.2782 103.814 17.1774 104.25 18.1151 104.25C19.0528 104.25 19.9521 103.814 20.6151 103.037C21.2782 102.261 21.6506 101.207 21.6506 100.109V87.6863C21.6652 87.154 21.5892 86.6236 21.4269 86.1261C21.2647 85.6285 21.0195 85.1738 20.7057 84.7883C20.3919 84.4029 20.0157 84.0945 19.5991 83.8811C19.1825 83.6677 18.7338 83.5535 18.2791 83.5453H18.2245Z" fill="#5E60CE"/>
<path d="M27.7919 83.5453C27.3371 83.534 26.8849 83.6277 26.4611 83.8211C26.0373 84.0145 25.6502 84.3038 25.3219 84.6725C24.9935 85.0412 24.7304 85.482 24.5476 85.9699C24.3648 86.4577 24.2658 86.9829 24.2563 87.5155V104.869C24.2563 105.967 24.6288 107.021 25.2919 107.797C25.9549 108.574 26.8542 109.01 27.7919 109.01C28.7296 109.01 29.6288 108.574 30.2919 107.797C30.9549 107.021 31.3274 105.967 31.3274 104.869V87.793C31.342 87.2607 31.2659 86.7303 31.1037 86.2328C30.9415 85.7352 30.6963 85.2805 30.3825 84.8951C30.0687 84.5096 29.6925 84.2012 29.2759 83.9878C28.8593 83.7744 28.4106 83.6602 27.9559 83.652L27.7919 83.5453Z" fill="#5E60CE"/>
</g>
<defs>
<clipPath id="clip0_24_97">
<rect width="55.9852" height="108.989" fill="white"/>
</clipPath>
</defs>
</svg>
