<svg width="218" height="46" viewBox="0 0 218 46" fill="none" xmlns="http://www.w3.org/2000/svg">
<path d="M41.88 27.64C41.88 31.4533 43.2933 33.36 46.12 33.36C46.7333 33.36 47.3333 33.28 47.92 33.12C48.5333 32.96 49.0267 32.76 49.4 32.52V21.76C49.1067 21.7067 48.7333 21.6667 48.28 21.64C47.8267 21.5867 47.3333 21.56 46.8 21.56C45.1733 21.56 43.9467 22.12 43.12 23.24C42.2933 24.3333 41.88 25.8 41.88 27.64ZM35.8 27.48C35.8 25.8533 36.04 24.3733 36.52 23.04C37.0267 21.68 37.7467 20.52 38.68 19.56C39.6133 18.5733 40.76 17.8133 42.12 17.28C43.48 16.7467 45.0267 16.48 46.76 16.48C47.48 16.48 48.2267 16.52 49 16.6C49.8 16.6533 50.5733 16.7333 51.32 16.84C52.0933 16.9467 52.8267 17.08 53.52 17.24C54.2133 17.3733 54.8267 17.52 55.36 17.68V45.4H49.4V37.48C48.7333 37.7733 48.04 38 47.32 38.16C46.6 38.32 45.8267 38.4 45 38.4C42.0133 38.4 39.7333 37.4267 38.16 35.48C36.5867 33.5067 35.8 30.84 35.8 27.48ZM78.9006 37.28C77.8873 37.5733 76.5806 37.84 74.9806 38.08C73.3806 38.3467 71.7006 38.48 69.9406 38.48C68.154 38.48 66.6606 38.24 65.4606 37.76C64.2873 37.28 63.354 36.6133 62.6606 35.76C61.9673 34.88 61.474 33.84 61.1806 32.64C60.8873 31.44 60.7406 30.12 60.7406 28.68V16.96H66.7006V27.96C66.7006 29.88 66.954 31.2667 67.4606 32.12C67.9673 32.9733 68.914 33.4 70.3006 33.4C70.7273 33.4 71.1806 33.3867 71.6606 33.36C72.1406 33.3067 72.5673 33.2533 72.9406 33.2V16.96H78.9006V37.28ZM90.4553 38H84.4953V16.96H90.4553V38ZM91.0153 10.88C91.0153 11.9733 90.6553 12.84 89.9353 13.48C89.242 14.0933 88.4153 14.4 87.4553 14.4C86.4953 14.4 85.6553 14.0933 84.9353 13.48C84.242 12.84 83.8953 11.9733 83.8953 10.88C83.8953 9.78667 84.242 8.93333 84.9353 8.32C85.6553 7.68 86.4953 7.36 87.4553 7.36C88.4153 7.36 89.242 7.68 89.9353 8.32C90.6553 8.93333 91.0153 9.78667 91.0153 10.88ZM95.0578 27.48C95.0578 25.96 95.2978 24.5333 95.7778 23.2C96.2845 21.84 97.0045 20.6667 97.9378 19.68C98.8711 18.6667 100.004 17.8667 101.338 17.28C102.671 16.6933 104.191 16.4 105.898 16.4C107.018 16.4 108.044 16.5067 108.978 16.72C109.911 16.9067 110.818 17.1867 111.698 17.56L110.458 22.32C109.898 22.1067 109.284 21.92 108.618 21.76C107.951 21.6 107.204 21.52 106.378 21.52C104.618 21.52 103.298 22.0667 102.418 23.16C101.564 24.2533 101.138 25.6933 101.138 27.48C101.138 29.3733 101.538 30.84 102.338 31.88C103.164 32.92 104.591 33.44 106.618 33.44C107.338 33.44 108.111 33.3733 108.938 33.24C109.764 33.1067 110.524 32.8933 111.218 32.6L112.058 37.48C111.364 37.7733 110.498 38.0267 109.458 38.24C108.418 38.4533 107.271 38.56 106.018 38.56C104.098 38.56 102.444 38.28 101.058 37.72C99.6711 37.1333 98.5245 36.3467 97.6178 35.36C96.7378 34.3733 96.0845 33.2133 95.6578 31.88C95.2578 30.52 95.0578 29.0533 95.0578 27.48ZM122.018 24.56C122.604 23.92 123.204 23.2533 123.818 22.56C124.458 21.8667 125.071 21.1867 125.658 20.52C126.244 19.8267 126.791 19.1733 127.298 18.56C127.831 17.9467 128.284 17.4133 128.658 16.96H135.738C134.324 18.5867 132.938 20.1467 131.578 21.64C130.244 23.1067 128.778 24.6267 127.178 26.2C127.978 26.92 128.804 27.7867 129.658 28.8C130.511 29.7867 131.338 30.8133 132.138 31.88C132.938 32.9467 133.671 34.0133 134.338 35.08C135.004 36.1467 135.564 37.12 136.018 38H129.178C128.751 37.3067 128.258 36.5467 127.698 35.72C127.164 34.8667 126.591 34.0267 125.978 33.2C125.364 32.3467 124.711 31.5333 124.018 30.76C123.351 29.9867 122.684 29.3333 122.018 28.8V38H116.058V7.92L122.018 6.96V24.56Z" fill="#4EA8DE"/>
<path d="M138.709 11.72L144.669 10.76V16.96H151.829V21.92H144.669V29.32C144.669 30.5733 144.883 31.5733 145.309 32.32C145.763 33.0667 146.656 33.44 147.989 33.44C148.629 33.44 149.283 33.3867 149.949 33.28C150.643 33.1467 151.269 32.9733 151.829 32.76L152.669 37.4C151.949 37.6933 151.149 37.9467 150.269 38.16C149.389 38.3733 148.309 38.48 147.029 38.48C145.403 38.48 144.056 38.2667 142.989 37.84C141.923 37.3867 141.069 36.7733 140.429 36C139.789 35.2 139.336 34.24 139.069 33.12C138.829 32 138.709 30.76 138.709 29.4V11.72ZM163.942 33.84C164.528 33.84 165.088 33.8267 165.622 33.8C166.155 33.7733 166.582 33.7333 166.902 33.68V29.16C166.662 29.1067 166.302 29.0533 165.822 29C165.342 28.9467 164.902 28.92 164.502 28.92C163.942 28.92 163.408 28.96 162.902 29.04C162.422 29.0933 161.995 29.2133 161.622 29.4C161.248 29.5867 160.955 29.84 160.742 30.16C160.528 30.48 160.422 30.88 160.422 31.36C160.422 32.2933 160.728 32.9467 161.342 33.32C161.982 33.6667 162.848 33.84 163.942 33.84ZM163.462 16.4C165.222 16.4 166.688 16.6 167.862 17C169.035 17.4 169.968 17.9733 170.662 18.72C171.382 19.4667 171.888 20.3733 172.182 21.44C172.475 22.5067 172.622 23.6933 172.622 25V37.4C171.768 37.5867 170.582 37.8 169.062 38.04C167.542 38.3067 165.702 38.44 163.542 38.44C162.182 38.44 160.942 38.32 159.822 38.08C158.728 37.84 157.782 37.4533 156.982 36.92C156.182 36.36 155.568 35.64 155.142 34.76C154.715 33.88 154.502 32.8 154.502 31.52C154.502 30.2933 154.742 29.2533 155.222 28.4C155.728 27.5467 156.395 26.8667 157.222 26.36C158.048 25.8533 158.995 25.4933 160.062 25.28C161.128 25.04 162.235 24.92 163.382 24.92C164.155 24.92 164.835 24.96 165.422 25.04C166.035 25.0933 166.528 25.1733 166.902 25.28V24.72C166.902 23.7067 166.595 22.8933 165.982 22.28C165.368 21.6667 164.302 21.36 162.782 21.36C161.768 21.36 160.768 21.44 159.782 21.6C158.795 21.7333 157.942 21.9333 157.222 22.2L156.462 17.4C156.808 17.2933 157.235 17.1867 157.742 17.08C158.275 16.9467 158.848 16.84 159.462 16.76C160.075 16.6533 160.715 16.5733 161.382 16.52C162.075 16.44 162.768 16.4 163.462 16.4ZM184.051 33.72C185.144 33.72 185.918 33.6133 186.371 33.4C186.824 33.1867 187.051 32.7733 187.051 32.16C187.051 31.68 186.758 31.2667 186.171 30.92C185.584 30.5467 184.691 30.1333 183.491 29.68C182.558 29.3333 181.704 28.9733 180.931 28.6C180.184 28.2267 179.544 27.7867 179.011 27.28C178.478 26.7467 178.064 26.12 177.771 25.4C177.478 24.68 177.331 23.8133 177.331 22.8C177.331 20.8267 178.064 19.2667 179.531 18.12C180.998 16.9733 183.011 16.4 185.571 16.4C186.851 16.4 188.078 16.52 189.251 16.76C190.424 16.9733 191.358 17.2133 192.051 17.48L191.011 22.12C190.318 21.88 189.558 21.6667 188.731 21.48C187.931 21.2933 187.024 21.2 186.011 21.2C184.144 21.2 183.211 21.72 183.211 22.76C183.211 23 183.251 23.2133 183.331 23.4C183.411 23.5867 183.571 23.7733 183.811 23.96C184.051 24.12 184.371 24.3067 184.771 24.52C185.198 24.7067 185.731 24.92 186.371 25.16C187.678 25.64 188.758 26.12 189.611 26.6C190.464 27.0533 191.131 27.56 191.611 28.12C192.118 28.6533 192.464 29.2533 192.651 29.92C192.864 30.5867 192.971 31.36 192.971 32.24C192.971 34.32 192.184 35.8933 190.611 36.96C189.064 38.0267 186.864 38.56 184.011 38.56C182.144 38.56 180.584 38.4 179.331 38.08C178.104 37.76 177.251 37.4933 176.771 37.28L177.771 32.44C178.784 32.84 179.824 33.16 180.891 33.4C181.958 33.6133 183.011 33.72 184.051 33.72ZM203.385 24.56C203.972 23.92 204.572 23.2533 205.185 22.56C205.825 21.8667 206.438 21.1867 207.025 20.52C207.612 19.8267 208.158 19.1733 208.665 18.56C209.198 17.9467 209.652 17.4133 210.025 16.96H217.105C215.692 18.5867 214.305 20.1467 212.945 21.64C211.612 23.1067 210.145 24.6267 208.545 26.2C209.345 26.92 210.172 27.7867 211.025 28.8C211.878 29.7867 212.705 30.8133 213.505 31.88C214.305 32.9467 215.038 34.0133 215.705 35.08C216.372 36.1467 216.932 37.12 217.385 38H210.545C210.118 37.3067 209.625 36.5467 209.065 35.72C208.532 34.8667 207.958 34.0267 207.345 33.2C206.732 32.3467 206.078 31.5333 205.385 30.76C204.718 29.9867 204.052 29.3333 203.385 28.8V38H197.425V7.92L203.385 6.96V24.56Z" fill="#5E60CE"/>
<g clip-path="url(#clip0_1_67)">
<path d="M11.0215 12.933C14.1472 16.9011 15.8157 21.7944 15.7552 26.8155V28.0141L16.7864 28.6416C18.1189 29.4482 19.1126 30.6993 19.5866 32.1669C19.1705 31.8605 18.7351 31.5803 18.2832 31.3278L15.5332 29.7838L15.039 32.9001C14.9962 33.1755 14.9389 33.4485 14.8672 33.718H7.16145C7.04686 33.3655 6.95376 33.0129 6.86783 32.6463L6.24478 29.8261L3.70962 31.2362C3.28609 31.473 2.87717 31.7344 2.48501 32.0188C2.96818 30.5682 3.94117 29.3242 5.24218 28.4935L6.22329 27.866V26.7521C6.24099 21.7513 7.92961 16.8952 11.0286 12.933H11.0215ZM11.0286 10C10.8679 10.0004 10.7128 10.058 10.5918 10.1622L10.5273 10.2186C6.39772 14.7656 4.1046 20.6454 4.08202 26.745C2.32961 27.8643 1.03244 29.5543 0.417202 31.5197C-0.19804 33.485 -0.0922329 35.6007 0.716133 37.4971C1.5677 35.6455 2.99125 34.1058 4.78384 33.0975C4.96362 33.8642 5.20304 34.6161 5.49999 35.3467C5.53765 35.4871 5.62112 35.6114 5.73757 35.7006C5.85402 35.7898 5.997 35.8388 6.14452 35.8402H16.0846C16.2851 35.8402 16.4857 35.6498 16.5859 35.3537C16.8757 34.6592 17.0778 33.9322 17.1875 33.1892C18.9835 34.1932 20.4082 35.7342 21.2552 37.5887C22.1123 35.7017 22.245 33.5727 21.6287 31.5967C21.0123 29.6206 19.6888 27.9319 17.9036 26.8437C17.9745 20.7082 15.6935 14.7718 11.5156 10.2186C11.4534 10.1501 11.3773 10.0952 11.2921 10.0576C11.207 10.0199 11.1148 10.0003 11.0215 10H11.0286Z" fill="#4EA8DE"/>
<path d="M11.0215 26.1598C10.4714 26.1598 9.93367 25.9995 9.47602 25.699C9.01837 25.3986 8.66131 24.9715 8.44984 24.4716C8.23838 23.9716 8.18197 23.4213 8.28773 22.8898C8.39349 22.3584 8.65669 21.8697 9.04414 21.4853C9.4316 21.1009 9.92597 20.838 10.4649 20.7298C11.0039 20.6216 11.5634 20.6729 12.0728 20.8773C12.5822 21.0816 13.0187 21.4298 13.3274 21.8781C13.6361 22.3263 13.803 22.8545 13.8073 23.396C13.8158 23.7469 13.7541 24.0961 13.6255 24.4235C13.497 24.751 13.3042 25.0503 13.0581 25.3043C12.812 25.5583 12.5175 25.7622 12.1914 25.9041C11.8653 26.0461 11.514 26.1234 11.1575 26.1316C11.1125 26.1387 11.0665 26.1387 11.0215 26.1316V26.1598Z" fill="#4EA8DE"/>
<path d="M14.8958 37.5958C14.7166 37.5901 14.5381 37.6198 14.3707 37.683C14.2033 37.7462 14.0504 37.8416 13.921 37.9638C13.7916 38.086 13.6883 38.2323 13.6171 38.3943C13.5459 38.5563 13.5083 38.7307 13.5065 38.9072V43.067C13.5065 43.4297 13.6529 43.7776 13.9134 44.0342C14.174 44.2907 14.5274 44.4348 14.8958 44.4348C15.2643 44.4348 15.6177 44.2907 15.8782 44.0342C16.1388 43.7776 16.2851 43.4297 16.2851 43.067V38.9636C16.2909 38.7877 16.261 38.6126 16.1972 38.4482C16.1335 38.2839 16.0371 38.1337 15.9138 38.0064C15.7905 37.879 15.6427 37.7772 15.479 37.7067C15.3153 37.6362 15.1389 37.5985 14.9603 37.5958H14.8958Z" fill="#5E60CE"/>
<path d="M7.16145 37.5958C6.97922 37.5863 6.79691 37.613 6.62537 37.6743C6.45383 37.7356 6.29656 37.8302 6.16293 37.9526C6.0293 38.0749 5.92204 38.2225 5.84752 38.3865C5.77299 38.5505 5.73274 38.7275 5.72916 38.9072V43.067C5.72916 43.4297 5.87553 43.7777 6.13608 44.0342C6.39663 44.2907 6.75001 44.4348 7.11848 44.4348C7.48695 44.4348 7.84033 44.2907 8.10088 44.0342C8.36143 43.7777 8.5078 43.4297 8.5078 43.067V38.9636C8.51353 38.7877 8.48364 38.6126 8.41989 38.4482C8.35614 38.2839 8.2598 38.1337 8.13649 38.0064C8.01317 37.879 7.86535 37.7772 7.70164 37.7067C7.53792 37.6362 7.3616 37.5985 7.18293 37.5958H7.16145Z" fill="#5E60CE"/>
<path d="M10.9212 37.5958C10.7425 37.592 10.5648 37.623 10.3983 37.6869C10.2317 37.7507 10.0796 37.8463 9.95059 37.9681C9.82157 38.0899 9.71819 38.2355 9.64635 38.3966C9.57451 38.5577 9.53561 38.7312 9.53189 38.9072V44.6392C9.53189 45.002 9.67827 45.3499 9.93881 45.6064C10.1994 45.8629 10.5527 46.007 10.9212 46.007C11.2897 46.007 11.6431 45.8629 11.9036 45.6064C12.1642 45.3499 12.3105 45.002 12.3105 44.6392V38.9988C12.3163 38.823 12.2864 38.6478 12.2226 38.4835C12.1589 38.3191 12.0625 38.1689 11.9392 38.0416C11.8159 37.9143 11.6681 37.8124 11.5044 37.7419C11.3407 37.6714 11.1643 37.6337 10.9857 37.631L10.9212 37.5958Z" fill="#5E60CE"/>
</g>
<defs>
<clipPath id="clip0_1_67">
<rect width="22" height="36" fill="white" transform="translate(0 10)"/>
</clipPath>
</defs>
</svg>
