<svg width="183" height="40" viewBox="0 0 183 40" fill="none" xmlns="http://www.w3.org/2000/svg">
<path d="M6.88 21.64C6.88 25.4533 8.29333 27.36 11.12 27.36C11.7333 27.36 12.3333 27.28 12.92 27.12C13.5333 26.96 14.0267 26.76 14.4 26.52V15.76C14.1067 15.7067 13.7333 15.6667 13.28 15.64C12.8267 15.5867 12.3333 15.56 11.8 15.56C10.1733 15.56 8.94667 16.12 8.12 17.24C7.29333 18.3333 6.88 19.8 6.88 21.64ZM0.8 21.48C0.8 19.8533 1.04 18.3733 1.52 17.04C2.02667 15.68 2.74667 14.52 3.68 13.56C4.61333 12.5733 5.76 11.8133 7.12 11.28C8.48 10.7467 10.0267 10.48 11.76 10.48C12.48 10.48 13.2267 10.52 14 10.6C14.8 10.6533 15.5733 10.7333 16.32 10.84C17.0933 10.9467 17.8267 11.08 18.52 11.24C19.2133 11.3733 19.8267 11.52 20.36 11.68V39.4H14.4V31.48C13.7333 31.7733 13.04 32 12.32 32.16C11.6 32.32 10.8267 32.4 10 32.4C7.01333 32.4 4.73333 31.4267 3.16 29.48C1.58667 27.5067 0.8 24.84 0.8 21.48ZM43.9006 31.28C42.8873 31.5733 41.5806 31.84 39.9806 32.08C38.3806 32.3467 36.7006 32.48 34.9406 32.48C33.154 32.48 31.6606 32.24 30.4606 31.76C29.2873 31.28 28.354 30.6133 27.6606 29.76C26.9673 28.88 26.474 27.84 26.1806 26.64C25.8873 25.44 25.7406 24.12 25.7406 22.68V10.96H31.7006V21.96C31.7006 23.88 31.954 25.2667 32.4606 26.12C32.9673 26.9733 33.914 27.4 35.3006 27.4C35.7273 27.4 36.1806 27.3867 36.6606 27.36C37.1406 27.3067 37.5673 27.2533 37.9406 27.2V10.96H43.9006V31.28ZM55.4553 32H49.4953V10.96H55.4553V32ZM56.0153 4.88C56.0153 5.97333 55.6553 6.84 54.9353 7.48C54.242 8.09333 53.4153 8.4 52.4553 8.4C51.4953 8.4 50.6553 8.09333 49.9353 7.48C49.242 6.84 48.8953 5.97333 48.8953 4.88C48.8953 3.78667 49.242 2.93333 49.9353 2.32C50.6553 1.68 51.4953 1.36 52.4553 1.36C53.4153 1.36 54.242 1.68 54.9353 2.32C55.6553 2.93333 56.0153 3.78667 56.0153 4.88ZM60.0578 21.48C60.0578 19.96 60.2978 18.5333 60.7778 17.2C61.2845 15.84 62.0045 14.6667 62.9378 13.68C63.8711 12.6667 65.0045 11.8667 66.3378 11.28C67.6711 10.6933 69.1911 10.4 70.8978 10.4C72.0178 10.4 73.0445 10.5067 73.9778 10.72C74.9111 10.9067 75.8178 11.1867 76.6978 11.56L75.4578 16.32C74.8978 16.1067 74.2845 15.92 73.6178 15.76C72.9511 15.6 72.2045 15.52 71.3778 15.52C69.6178 15.52 68.2978 16.0667 67.4178 17.16C66.5645 18.2533 66.1378 19.6933 66.1378 21.48C66.1378 23.3733 66.5378 24.84 67.3378 25.88C68.1645 26.92 69.5911 27.44 71.6178 27.44C72.3378 27.44 73.1111 27.3733 73.9378 27.24C74.7645 27.1067 75.5245 26.8933 76.2178 26.6L77.0578 31.48C76.3645 31.7733 75.4978 32.0267 74.4578 32.24C73.4178 32.4533 72.2711 32.56 71.0178 32.56C69.0978 32.56 67.4445 32.28 66.0578 31.72C64.6711 31.1333 63.5245 30.3467 62.6178 29.36C61.7378 28.3733 61.0845 27.2133 60.6578 25.88C60.2578 24.52 60.0578 23.0533 60.0578 21.48ZM87.0178 18.56C87.6045 17.92 88.2045 17.2533 88.8178 16.56C89.4578 15.8667 90.0711 15.1867 90.6578 14.52C91.2445 13.8267 91.7911 13.1733 92.2978 12.56C92.8311 11.9467 93.2845 11.4133 93.6578 10.96H100.738C99.3245 12.5867 97.9378 14.1467 96.5778 15.64C95.2445 17.1067 93.7778 18.6267 92.1778 20.2C92.9778 20.92 93.8045 21.7867 94.6578 22.8C95.5111 23.7867 96.3378 24.8133 97.1378 25.88C97.9378 26.9467 98.6711 28.0133 99.3378 29.08C100.004 30.1467 100.564 31.12 101.018 32H94.1778C93.7511 31.3067 93.2578 30.5467 92.6978 29.72C92.1645 28.8667 91.5911 28.0267 90.9778 27.2C90.3645 26.3467 89.7111 25.5333 89.0178 24.76C88.3511 23.9867 87.6845 23.3333 87.0178 22.8V32H81.0578V1.92L87.0178 0.959999V18.56Z" fill="#4EA8DE"/>
<path d="M103.709 5.72L109.669 4.76V10.96H116.829V15.92H109.669V23.32C109.669 24.5733 109.883 25.5733 110.309 26.32C110.763 27.0667 111.656 27.44 112.989 27.44C113.629 27.44 114.283 27.3867 114.949 27.28C115.643 27.1467 116.269 26.9733 116.829 26.76L117.669 31.4C116.949 31.6933 116.149 31.9467 115.269 32.16C114.389 32.3733 113.309 32.48 112.029 32.48C110.403 32.48 109.056 32.2667 107.989 31.84C106.923 31.3867 106.069 30.7733 105.429 30C104.789 29.2 104.336 28.24 104.069 27.12C103.829 26 103.709 24.76 103.709 23.4V5.72ZM128.942 27.84C129.528 27.84 130.088 27.8267 130.622 27.8C131.155 27.7733 131.582 27.7333 131.902 27.68V23.16C131.662 23.1067 131.302 23.0533 130.822 23C130.342 22.9467 129.902 22.92 129.502 22.92C128.942 22.92 128.408 22.96 127.902 23.04C127.422 23.0933 126.995 23.2133 126.622 23.4C126.248 23.5867 125.955 23.84 125.742 24.16C125.528 24.48 125.422 24.88 125.422 25.36C125.422 26.2933 125.728 26.9467 126.342 27.32C126.982 27.6667 127.848 27.84 128.942 27.84ZM128.462 10.4C130.222 10.4 131.688 10.6 132.862 11C134.035 11.4 134.968 11.9733 135.662 12.72C136.382 13.4667 136.888 14.3733 137.182 15.44C137.475 16.5067 137.622 17.6933 137.622 19V31.4C136.768 31.5867 135.582 31.8 134.062 32.04C132.542 32.3067 130.702 32.44 128.542 32.44C127.182 32.44 125.942 32.32 124.822 32.08C123.728 31.84 122.782 31.4533 121.982 30.92C121.182 30.36 120.568 29.64 120.142 28.76C119.715 27.88 119.502 26.8 119.502 25.52C119.502 24.2933 119.742 23.2533 120.222 22.4C120.728 21.5467 121.395 20.8667 122.222 20.36C123.048 19.8533 123.995 19.4933 125.062 19.28C126.128 19.04 127.235 18.92 128.382 18.92C129.155 18.92 129.835 18.96 130.422 19.04C131.035 19.0933 131.528 19.1733 131.902 19.28V18.72C131.902 17.7067 131.595 16.8933 130.982 16.28C130.368 15.6667 129.302 15.36 127.782 15.36C126.768 15.36 125.768 15.44 124.782 15.6C123.795 15.7333 122.942 15.9333 122.222 16.2L121.462 11.4C121.808 11.2933 122.235 11.1867 122.742 11.08C123.275 10.9467 123.848 10.84 124.462 10.76C125.075 10.6533 125.715 10.5733 126.382 10.52C127.075 10.44 127.768 10.4 128.462 10.4ZM149.051 27.72C150.144 27.72 150.918 27.6133 151.371 27.4C151.824 27.1867 152.051 26.7733 152.051 26.16C152.051 25.68 151.758 25.2667 151.171 24.92C150.584 24.5467 149.691 24.1333 148.491 23.68C147.558 23.3333 146.704 22.9733 145.931 22.6C145.184 22.2267 144.544 21.7867 144.011 21.28C143.478 20.7467 143.064 20.12 142.771 19.4C142.478 18.68 142.331 17.8133 142.331 16.8C142.331 14.8267 143.064 13.2667 144.531 12.12C145.998 10.9733 148.011 10.4 150.571 10.4C151.851 10.4 153.078 10.52 154.251 10.76C155.424 10.9733 156.358 11.2133 157.051 11.48L156.011 16.12C155.318 15.88 154.558 15.6667 153.731 15.48C152.931 15.2933 152.024 15.2 151.011 15.2C149.144 15.2 148.211 15.72 148.211 16.76C148.211 17 148.251 17.2133 148.331 17.4C148.411 17.5867 148.571 17.7733 148.811 17.96C149.051 18.12 149.371 18.3067 149.771 18.52C150.198 18.7067 150.731 18.92 151.371 19.16C152.678 19.64 153.758 20.12 154.611 20.6C155.464 21.0533 156.131 21.56 156.611 22.12C157.118 22.6533 157.464 23.2533 157.651 23.92C157.864 24.5867 157.971 25.36 157.971 26.24C157.971 28.32 157.184 29.8933 155.611 30.96C154.064 32.0267 151.864 32.56 149.011 32.56C147.144 32.56 145.584 32.4 144.331 32.08C143.104 31.76 142.251 31.4933 141.771 31.28L142.771 26.44C143.784 26.84 144.824 27.16 145.891 27.4C146.958 27.6133 148.011 27.72 149.051 27.72ZM168.385 18.56C168.972 17.92 169.572 17.2533 170.185 16.56C170.825 15.8667 171.438 15.1867 172.025 14.52C172.612 13.8267 173.158 13.1733 173.665 12.56C174.198 11.9467 174.652 11.4133 175.025 10.96H182.105C180.692 12.5867 179.305 14.1467 177.945 15.64C176.612 17.1067 175.145 18.6267 173.545 20.2C174.345 20.92 175.172 21.7867 176.025 22.8C176.878 23.7867 177.705 24.8133 178.505 25.88C179.305 26.9467 180.038 28.0133 180.705 29.08C181.372 30.1467 181.932 31.12 182.385 32H175.545C175.118 31.3067 174.625 30.5467 174.065 29.72C173.532 28.8667 172.958 28.0267 172.345 27.2C171.732 26.3467 171.078 25.5333 170.385 24.76C169.718 23.9867 169.052 23.3333 168.385 22.8V32H162.425V1.92L168.385 0.959999V18.56Z" fill="#5E60CE"/>
</svg>
